<svg xmlns="http://www.w3.org/2000/svg">
<defs>
  <symbol viewBox="0 0 487 487" id="dropdown">
    <path d="M89 111a52 52 0 00-74 74l192 191c20 21 53 21 74 0l191-191a52 52 0 00-74-74L244 265 89 111z"/>
  </symbol>
  <symbol viewBox="0 0 512.005 512.005" id="search">
    <path d="M505.749 475.587l-145.6-145.6c28.203-34.837 45.184-79.104 45.184-127.317C405.333 90.926 314.41.003 202.666.003S0 90.925 0 202.669s90.923 202.667 202.667 202.667c48.213 0 92.48-16.981 127.317-45.184l145.6 145.6c4.16 4.16 9.621 6.251 15.083 6.251s10.923-2.091 15.083-6.251c8.341-8.341 8.341-21.824-.001-30.165zM202.667 362.669c-88.235 0-160-71.765-160-160s71.765-160 160-160 160 71.765 160 160-71.766 160-160 160z"></path>
  </symbol>
  <symbol  viewBox="0 0 512 512" id="list">
    <path d="M492 236H144.262c-11.046 0-20 8.954-20 20s8.954 20 20 20H492c11.046 0 20-8.954 20-20s-8.954-20-20-20zm0-150H144.262c-11.046 0-20 8.954-20 20s8.954 20 20 20H492c11.046 0 20-8.954 20-20s-8.954-20-20-20zm0 300H144.262c-11.046 0-20 8.954-20 20s8.954 20 20 20H492c11.046 0 20-8.954 20-20s-8.954-20-20-20z"></path>
    <circle cx="27" cy="106" r="27"></circle>
    <circle cx="27" cy="256" r="27"></circle>
    <circle cx="27" cy="406" r="27"></circle>
  </symbol>
  <symbol viewBox="0 0 512 512" id="history">
    <path d="M276 138v109.716l72.809 72.809c7.811 7.811 7.811 20.474 0 28.284-7.811 7.811-20.474 7.81-28.284 0l-78.667-78.667A19.998 19.998 0 01236 256V138c0-11.046 8.954-20 20-20s20 8.954 20 20zM334.667 0H177.333c-41.89 0-83.217 14.722-116.284 43.478V20c0-11.046-8.954-20-20-20s-20 8.954-20 20v78.667c0 11.046 9.031 20 20 20h78.667c11.046 0 20-8.954 20-20s-8.954-20-20-20H81.883C107.197 54.262 141.368 40 177.333 40h157.333C410.393 40 472 101.607 472 177.333v157.333C472 410.393 410.393 472 334.667 472H177.333C101.607 472 40 410.393 40 334.667V256c0-11.046-8.954-20-20-20s-20 8.954-20 20v78.667C0 432.449 79.551 512 177.333 512h157.333C432.449 512 512 432.449 512 334.667V177.333C512 79.551 432.449 0 334.667 0z"></path>
  </symbol> 
    <symbol viewBox="0 0 511.999 511.999" id="statistics">
    <path d="M45.33 283.02L5.634 323.94c-7.675 7.913-7.484 20.55.429 28.226A19.889 19.889 0 0019.96 357.8c5.21 0 10.416-2.028 14.329-6.062l39.696-40.92c7.675-7.913 7.484-20.55-.429-28.226-7.913-7.677-20.55-7.485-28.226.428zm92.401 12.9c-11.023 0-19.961 8.937-19.961 19.961v175.658c0 11.023 8.937 19.961 19.961 19.961h.001c11.023 0 19.961-8.937 19.961-19.961l-.002-175.659c0-11.023-8.936-19.96-19.96-19.96zm77.848-43.913c-11.023 0-19.961 8.937-19.961 19.961v219.571c0 11.023 8.937 19.961 19.961 19.961s19.961-8.937 19.961-19.961V271.967c-.001-11.023-8.937-19.96-19.961-19.96zM452.116.498h-59.883c-11.024 0-19.961 8.937-19.961 19.961s8.937 19.961 19.961 19.961h52.61l-146.57 146.539c-3.932 3.933-9.078 6.17-14.167 6.17-.107 0-.216-.001-.323-.003-4.901-.092-9.91-2.339-13.738-6.168l-23.468-23.468c-11.489-11.489-26.741-18.149-41.848-18.273l-.439-.001c-15.636 0-31.25 6.835-42.919 18.799l-42.776 42.969c-7.778 7.813-7.75 20.451.063 28.229a19.896 19.896 0 0014.082 5.815 19.899 19.899 0 0014.146-5.879l42.854-43.046c.059-.058.116-.117.174-.176 4.168-4.293 9.6-6.839 14.488-6.79 4.651.038 9.865 2.498 13.948 6.581l23.468 23.468c11.226 11.227 25.866 17.568 41.223 17.854 15.969.3 31.822-6.209 43.463-17.852L472.077 69.644v49.622c0 11.024 8.937 19.961 19.961 19.961s19.961-8.937 19.961-19.961V60.381c0-33.019-26.863-59.883-59.883-59.883zM58.952 385.746c-11.05-.038-20.029 8.91-20.029 19.961v85.832c0 11.023 8.937 19.961 19.961 19.961h.001c11.024 0 19.961-8.937 19.961-19.961v-85.832c-.001-10.998-8.895-19.924-19.894-19.961zm392.166-214.581c-11.024 0-19.961 8.937-19.961 19.961V491.54c0 11.023 8.937 19.961 19.961 19.961h.001c11.023 0 19.961-8.937 19.961-19.961V191.126c-.001-11.025-8.937-19.961-19.962-19.961zM293.426 276.958c-11.024 0-19.961 8.937-19.961 19.961v194.62c0 11.023 8.937 19.961 19.961 19.961h.001c11.023 0 19.961-8.937 19.961-19.961v-194.62c-.001-11.024-8.937-19.961-19.962-19.961zm78.774-37.926c-10.996.04-19.888 8.966-19.888 19.961V491.54c0 11.023 8.937 19.961 19.961 19.961h.001c11.023 0 19.961-8.937 19.961-19.961V258.993c-.002-11.053-8.983-20.002-20.035-19.961z"></path>
  </symbol>
  <symbol  for  viewBox="0 0 426.667 426.667" id="plus">
    <path d="M405.332 192H234.668V21.332C234.668 9.559 225.109 0 213.332 0 201.559 0 192 9.559 192 21.332V192H21.332C9.559 192 0 201.559 0 213.332c0 11.777 9.559 21.336 21.332 21.336H192v170.664c0 11.777 9.559 21.336 21.332 21.336 11.777 0 21.336-9.559 21.336-21.336V234.668h170.664c11.777 0 21.336-9.559 21.336-21.336 0-11.773-9.559-21.332-21.336-21.332zm0 0"></path>
  </symbol>     
</defs>
</svg>